<?xml version="1.0" standalone="no"?>
<!DOCTYPE svg PUBLIC "-//W3C//DTD SVG 20010904//EN"
 "http://www.w3.org/TR/2001/REC-SVG-20010904/DTD/svg10.dtd">
<svg version="1.0" xmlns="http://www.w3.org/2000/svg"
 width="16.000000pt" height="16.000000pt" viewBox="0 0 16.000000 16.000000"
 preserveAspectRatio="xMidYMid meet">
<metadata>
Created by potrace 1.11, written by Peter Selinger 2001-2013
</metadata>
<g transform="translate(0.000000,16.000000) scale(0.002671,-0.002671)"
fill="#000000" stroke="none">
<path d="M2837 5933 c-1 0 -57 -4 -124 -7 -67 -4 -130 -8 -140 -10 -10 -2 -54
-7 -98 -11 -44 -4 -82 -8 -85 -10 -3 -2 -33 -7 -65 -10 -33 -4 -62 -9 -65 -10
-3 -2 -26 -6 -50 -10 -25 -3 -101 -20 -170 -36 -583 -138 -989 -385 -1240
-753 -76 -113 -176 -353 -194 -470 -4 -21 -8 -41 -10 -45 -2 -3 -7 -33 -11
-66 -4 -33 -9 -73 -11 -90 -6 -38 -6 -316 0 -374 10 -101 23 -185 36 -246 5
-22 12 -56 15 -75 7 -40 41 -180 55 -225 6 -16 21 -66 34 -110 13 -44 43 -132
66 -195 43 -116 51 -138 88 -220 11 -25 32 -74 47 -110 55 -131 249 -511 312
-612 13 -21 23 -40 23 -43 0 -2 59 -104 130 -225 778 -1316 1338 -1948 1664
-1879 149 32 309 153 556 419 48 51 170 204 262 325 147 196 231 318 464 680
17 28 82 133 143 235 61 102 116 192 121 200 191 311 436 787 542 1055 21 55
43 109 49 120 45 96 171 534 193 675 3 19 8 46 10 60 27 151 37 399 22 545
-56 545 -351 955 -871 1212 -38 19 -81 41 -95 48 -76 38 -391 142 -480 159
-14 2 -54 11 -90 19 -103 25 -248 48 -385 63 -33 3 -68 8 -78 10 -49 9 -562
25 -570 17z m1085 -1472 c45 -2 45 -4 44 -931 l-1 -875 -27 -51 c-33 -63 -84
-109 -163 -145 -252 -118 -572 -45 -677 154 -29 54 -31 166 -5 214 99 185 380
269 618 185 30 -10 62 -22 72 -27 16 -7 17 21 17 515 l0 522 -52 -6 c-29 -4
-80 -9 -113 -11 -33 -3 -76 -7 -95 -10 -34 -5 -131 -15 -180 -20 -81 -8 -177
-18 -192 -20 -9 -2 -49 -7 -90 -10 -40 -4 -84 -9 -98 -10 -119 -12 -158 -16
-180 -20 -14 -2 -59 -7 -100 -11 -41 -3 -77 -8 -80 -11 -3 -3 -5 -311 -6 -686
l-1 -682 -22 -52 c-56 -127 -224 -213 -416 -214 -121 0 -186 15 -275 62 -291
156 -221 474 125 564 111 28 267 16 371 -30 l54 -24 0 724 0 724 25 19 c18 14
54 22 137 31 62 7 129 14 148 16 91 11 272 30 380 40 30 3 71 7 90 10 19 3 60
7 90 10 85 8 162 16 190 20 14 3 57 7 95 10 39 3 81 8 95 10 14 2 57 7 95 11
39 3 71 8 73 9 2 2 11 2 20 0 9 -2 25 -4 34 -4z"/>
</g>
</svg>
